<?xml version="1.0" encoding="utf-8"?>
<!-- Generator: Adobe Illustrator 21.0.0, SVG Export Plug-In . SVG Version: 6.00 Build 0)  -->
<svg version="1.1" id="Layer_1" xmlns="http://www.w3.org/2000/svg" xmlns:xlink="http://www.w3.org/1999/xlink" x="0px" y="0px"
	 width="267px" height="67.4px" viewBox="0 0 267 67.4" style="enable-background:new 0 0 267 67.4;" xml:space="preserve">
<style type="text/css">
	.st0{fill:#FFFFFF;}
	.st1{clip-path:url(#SVGID_2_);fill:#FFFFFF;}
	.st2{clip-path:url(#SVGID_4_);fill:#FFFFFF;}
	.st3{clip-path:url(#SVGID_6_);fill:#FFFFFF;}
	.st4{clip-path:url(#SVGID_8_);fill:#FFFFFF;}
	.st5{clip-path:url(#SVGID_10_);fill:#FFFFFF;}
	.st6{clip-path:url(#SVGID_12_);fill:#FFFFFF;}
	.st7{clip-path:url(#SVGID_14_);fill:#FFFFFF;}
	.st8{clip-path:url(#SVGID_16_);fill:#FFFFFF;}
	.st9{clip-path:url(#SVGID_18_);fill:#FFFFFF;}
	.st10{clip-path:url(#SVGID_20_);fill:#FFFFFF;}
	.st11{clip-path:url(#SVGID_20_);fill:#BD9469;}
	.st12{fill:#BD9469;}
	.st13{clip-path:url(#SVGID_22_);fill:#BD9469;}
	.st14{clip-path:url(#SVGID_24_);fill:#BD9469;}
</style>
<g>
	<polygon class="st0" points="47.9,52 47.9,52.9 42.6,52.9 42.6,45.5 47.8,45.5 47.8,46.4 43.7,46.4 43.7,48.7 47.3,48.7 47.3,49.6 
		43.7,49.6 43.7,52 	"/>
	<polygon class="st0" points="57.1,52.9 57.1,47.5 54.4,52 53.9,52 51.3,47.6 51.3,52.9 50.3,52.9 50.3,45.5 51.1,45.5 54.2,50.7 
		57.2,45.5 58.1,45.5 58.1,52.9 	"/>
	<g>
		<defs>
			<rect id="SVGID_1_" width="267" height="67.4"/>
		</defs>
		<clipPath id="SVGID_2_">
			<use xlink:href="#SVGID_1_"  style="overflow:visible;"/>
		</clipPath>
		<path class="st1" d="M65.3,49.3c0.3-0.3,0.5-0.7,0.5-1.2c0-0.5-0.2-0.9-0.5-1.2c-0.3-0.3-0.9-0.4-1.5-0.4H62v3.3h1.8
			C64.4,49.7,64.9,49.6,65.3,49.3 M66,46.2c0.5,0.5,0.8,1.1,0.8,1.9c0,0.8-0.3,1.4-0.8,1.9c-0.5,0.5-1.3,0.7-2.2,0.7H62v2.2h-1v-7.3
			h2.9C64.7,45.5,65.5,45.8,66,46.2"/>
		<path class="st1" d="M73.9,51.7c0.4-0.2,0.8-0.6,1-1c0.2-0.4,0.4-0.9,0.4-1.4c0-0.5-0.1-1-0.4-1.4c-0.2-0.4-0.6-0.8-1-1
			c-0.4-0.2-0.9-0.4-1.5-0.4c-0.5,0-1,0.1-1.5,0.4c-0.4,0.2-0.8,0.6-1,1c-0.2,0.4-0.4,0.9-0.4,1.4c0,0.5,0.1,1,0.4,1.4
			c0.2,0.4,0.6,0.8,1,1c0.4,0.2,0.9,0.4,1.5,0.4C73,52,73.4,51.9,73.9,51.7 M70.4,52.5c-0.6-0.3-1.1-0.8-1.4-1.3
			c-0.3-0.6-0.5-1.2-0.5-1.9c0-0.7,0.2-1.3,0.5-1.9c0.3-0.6,0.8-1,1.4-1.3c0.6-0.3,1.3-0.5,2-0.5c0.7,0,1.4,0.2,2,0.5
			c0.6,0.3,1.1,0.8,1.4,1.3c0.3,0.6,0.5,1.2,0.5,1.9c0,0.7-0.2,1.4-0.5,1.9c-0.3,0.6-0.8,1-1.4,1.3s-1.3,0.5-2,0.5
			C71.7,53,71,52.8,70.4,52.5"/>
	</g>
	<polygon class="st0" points="88.7,45.5 86.2,52.9 85.1,52.9 83.1,47 81.1,52.9 80,52.9 77.5,45.5 78.6,45.5 80.6,51.5 82.7,45.5 
		83.6,45.5 85.7,51.5 87.7,45.5 	"/>
	<polygon class="st0" points="95.9,52 95.9,52.9 90.6,52.9 90.6,45.5 95.8,45.5 95.8,46.4 91.6,46.4 91.6,48.7 95.3,48.7 95.3,49.6 
		91.6,49.6 91.6,52 	"/>
	<g>
		<defs>
			<rect id="SVGID_3_" width="267" height="67.4"/>
		</defs>
		<clipPath id="SVGID_4_">
			<use xlink:href="#SVGID_3_"  style="overflow:visible;"/>
		</clipPath>
		<path class="st2" d="M102.6,49.3c0.4-0.3,0.5-0.7,0.5-1.2c0-0.5-0.2-0.9-0.5-1.2c-0.3-0.3-0.9-0.4-1.5-0.4h-1.8v3.3h1.8
			C101.7,49.7,102.2,49.6,102.6,49.3 M103.1,52.9l-1.6-2.3c-0.2,0-0.3,0-0.5,0h-1.8v2.2h-1v-7.3h2.9c1,0,1.7,0.2,2.2,0.7
			c0.5,0.5,0.8,1.1,0.8,1.9c0,0.6-0.1,1-0.4,1.4c-0.3,0.4-0.7,0.7-1.2,0.9l1.7,2.5H103.1z"/>
	</g>
	<rect x="106.5" y="45.5" class="st0" width="1" height="7.3"/>
	<polygon class="st0" points="116.7,45.5 116.7,52.9 115.8,52.9 111.4,47.4 111.4,52.9 110.4,52.9 110.4,45.5 111.2,45.5 115.6,51 
		115.6,45.5 	"/>
	<g>
		<defs>
			<rect id="SVGID_5_" width="267" height="67.4"/>
		</defs>
		<clipPath id="SVGID_6_">
			<use xlink:href="#SVGID_5_"  style="overflow:visible;"/>
		</clipPath>
		<path class="st3" d="M124.6,49.2h1V52c-0.4,0.3-0.8,0.5-1.3,0.7c-0.5,0.2-1,0.2-1.5,0.2c-0.7,0-1.4-0.2-2-0.5
			c-0.6-0.3-1.1-0.8-1.4-1.3c-0.3-0.6-0.5-1.2-0.5-1.9s0.2-1.4,0.5-1.9s0.8-1,1.4-1.3c0.6-0.3,1.3-0.5,2-0.5c0.6,0,1.1,0.1,1.6,0.3
			c0.5,0.2,0.9,0.5,1.2,0.8l-0.6,0.6c-0.6-0.6-1.3-0.8-2.1-0.8c-0.6,0-1.1,0.1-1.5,0.4s-0.8,0.6-1,1c-0.3,0.4-0.4,0.9-0.4,1.5
			c0,0.5,0.1,1,0.4,1.4c0.3,0.4,0.6,0.8,1,1c0.4,0.2,0.9,0.4,1.5,0.4c0.7,0,1.2-0.2,1.7-0.5V49.2z"/>
		<path class="st3" d="M136,49.3c0.3-0.3,0.5-0.7,0.5-1.2c0-0.5-0.2-0.9-0.5-1.2c-0.3-0.3-0.9-0.4-1.5-0.4h-1.8v3.3h1.8
			C135.2,49.7,135.7,49.6,136,49.3 M136.8,46.2c0.5,0.5,0.8,1.1,0.8,1.9c0,0.8-0.3,1.4-0.8,1.9c-0.5,0.5-1.3,0.7-2.2,0.7h-1.8v2.2
			h-1v-7.3h2.9C135.5,45.5,136.2,45.8,136.8,46.2"/>
		<path class="st3" d="M144.1,49.3c0.3-0.3,0.5-0.7,0.5-1.2c0-0.5-0.2-0.9-0.5-1.2c-0.3-0.3-0.9-0.4-1.5-0.4h-1.8v3.3h1.8
			C143.3,49.7,143.8,49.6,144.1,49.3 M144.7,52.9l-1.6-2.3c-0.2,0-0.3,0-0.5,0h-1.8v2.2h-1v-7.3h2.9c0.9,0,1.7,0.2,2.2,0.7
			c0.5,0.5,0.8,1.1,0.8,1.9c0,0.6-0.1,1-0.4,1.4c-0.3,0.4-0.7,0.7-1.2,0.9l1.7,2.5H144.7z"/>
		<path class="st3" d="M152.8,51.7c0.4-0.2,0.8-0.6,1-1c0.2-0.4,0.4-0.9,0.4-1.4c0-0.5-0.1-1-0.4-1.4c-0.2-0.4-0.6-0.8-1-1
			c-0.4-0.2-0.9-0.4-1.5-0.4c-0.5,0-1,0.1-1.5,0.4c-0.4,0.2-0.8,0.6-1,1c-0.2,0.4-0.4,0.9-0.4,1.4c0,0.5,0.1,1,0.4,1.4
			c0.2,0.4,0.6,0.8,1,1c0.4,0.2,0.9,0.4,1.5,0.4C151.9,52,152.3,51.9,152.8,51.7 M149.3,52.5c-0.6-0.3-1.1-0.8-1.4-1.3
			c-0.3-0.6-0.5-1.2-0.5-1.9c0-0.7,0.2-1.3,0.5-1.9c0.3-0.6,0.8-1,1.4-1.3c0.6-0.3,1.3-0.5,2-0.5c0.7,0,1.4,0.2,2,0.5
			c0.6,0.3,1.1,0.8,1.4,1.3c0.3,0.6,0.5,1.2,0.5,1.9c0,0.7-0.2,1.4-0.5,1.9c-0.3,0.6-0.8,1-1.4,1.3c-0.6,0.3-1.3,0.5-2,0.5
			C150.6,53,149.9,52.8,149.3,52.5"/>
	</g>
	<polygon class="st0" points="158.5,46.4 158.5,49 162.2,49 162.2,49.9 158.5,49.9 158.5,52.9 157.4,52.9 157.4,45.5 162.6,45.5 
		162.6,46.4 	"/>
	<polygon class="st0" points="170.1,52 170.1,52.9 164.7,52.9 164.7,45.5 169.9,45.5 169.9,46.4 165.8,46.4 165.8,48.7 169.5,48.7 
		169.5,49.6 165.8,49.6 165.8,52 	"/>
	<g>
		<defs>
			<rect id="SVGID_7_" width="267" height="67.4"/>
		</defs>
		<clipPath id="SVGID_8_">
			<use xlink:href="#SVGID_7_"  style="overflow:visible;"/>
		</clipPath>
		<path class="st4" d="M172.9,52.7c-0.5-0.2-0.9-0.4-1.2-0.7l0.4-0.8c0.3,0.3,0.6,0.5,1.1,0.6c0.4,0.2,0.9,0.2,1.3,0.2
			c0.6,0,1.1-0.1,1.4-0.3c0.3-0.2,0.5-0.5,0.5-0.8c0-0.3-0.1-0.5-0.2-0.6c-0.2-0.2-0.4-0.3-0.6-0.4c-0.2-0.1-0.6-0.2-1-0.3
			c-0.6-0.1-1-0.3-1.3-0.4c-0.3-0.1-0.6-0.3-0.9-0.6c-0.2-0.3-0.4-0.6-0.4-1.1c0-0.4,0.1-0.7,0.3-1.1c0.2-0.3,0.5-0.6,0.9-0.8
			c0.4-0.2,0.9-0.3,1.6-0.3c0.4,0,0.9,0.1,1.3,0.2c0.4,0.1,0.8,0.3,1.1,0.5l-0.3,0.8c-0.3-0.2-0.6-0.3-1-0.4c-0.3-0.1-0.7-0.2-1-0.2
			c-0.6,0-1,0.1-1.3,0.3c-0.3,0.2-0.4,0.5-0.4,0.8c0,0.3,0.1,0.5,0.3,0.6c0.2,0.2,0.4,0.3,0.6,0.4c0.2,0.1,0.6,0.2,1,0.3
			c0.6,0.1,1,0.3,1.3,0.4c0.3,0.1,0.6,0.3,0.9,0.6c0.2,0.3,0.4,0.6,0.4,1.1c0,0.4-0.1,0.7-0.3,1.1c-0.2,0.3-0.5,0.6-1,0.8
			s-1,0.3-1.6,0.3C174,53,173.4,52.9,172.9,52.7"/>
		<path class="st4" d="M180.1,52.7c-0.5-0.2-0.9-0.4-1.2-0.7l0.4-0.8c0.3,0.3,0.6,0.5,1.1,0.6c0.4,0.2,0.9,0.2,1.3,0.2
			c0.6,0,1.1-0.1,1.4-0.3c0.3-0.2,0.4-0.5,0.4-0.8c0-0.3-0.1-0.5-0.2-0.6c-0.2-0.2-0.4-0.3-0.6-0.4c-0.2-0.1-0.6-0.2-1-0.3
			c-0.6-0.1-1-0.3-1.3-0.4c-0.3-0.1-0.6-0.3-0.9-0.6c-0.2-0.3-0.4-0.6-0.4-1.1c0-0.4,0.1-0.7,0.3-1.1c0.2-0.3,0.5-0.6,0.9-0.8
			c0.4-0.2,0.9-0.3,1.6-0.3c0.4,0,0.9,0.1,1.3,0.2c0.4,0.1,0.8,0.3,1.1,0.5l-0.3,0.8c-0.3-0.2-0.6-0.3-1-0.4c-0.3-0.1-0.7-0.2-1-0.2
			c-0.6,0-1,0.1-1.3,0.3c-0.3,0.2-0.4,0.5-0.4,0.8c0,0.3,0.1,0.5,0.3,0.6c0.2,0.2,0.4,0.3,0.6,0.4c0.2,0.1,0.6,0.2,1,0.3
			c0.6,0.1,1,0.3,1.3,0.4c0.3,0.1,0.6,0.3,0.9,0.6c0.2,0.3,0.4,0.6,0.4,1.1c0,0.4-0.1,0.7-0.3,1.1c-0.2,0.3-0.5,0.6-1,0.8
			c-0.4,0.2-1,0.3-1.6,0.3C181.1,53,180.6,52.9,180.1,52.7"/>
	</g>
	<rect x="186.7" y="45.5" class="st0" width="1" height="7.3"/>
	<g>
		<defs>
			<rect id="SVGID_9_" width="267" height="67.4"/>
		</defs>
		<clipPath id="SVGID_10_">
			<use xlink:href="#SVGID_9_"  style="overflow:visible;"/>
		</clipPath>
		<path class="st5" d="M195.3,51.7c0.4-0.2,0.8-0.6,1-1c0.2-0.4,0.4-0.9,0.4-1.4c0-0.5-0.1-1-0.4-1.4s-0.6-0.8-1-1
			c-0.4-0.2-0.9-0.4-1.5-0.4c-0.5,0-1,0.1-1.5,0.4c-0.4,0.2-0.8,0.6-1,1c-0.2,0.4-0.4,0.9-0.4,1.4c0,0.5,0.1,1,0.4,1.4
			c0.2,0.4,0.6,0.8,1,1c0.4,0.2,0.9,0.4,1.5,0.4C194.4,52,194.9,51.9,195.3,51.7 M191.9,52.5c-0.6-0.3-1.1-0.8-1.4-1.3
			c-0.3-0.6-0.5-1.2-0.5-1.9c0-0.7,0.2-1.3,0.5-1.9c0.3-0.6,0.8-1,1.4-1.3c0.6-0.3,1.3-0.5,2-0.5c0.7,0,1.4,0.2,2,0.5
			c0.6,0.3,1.1,0.8,1.4,1.3c0.3,0.6,0.5,1.2,0.5,1.9c0,0.7-0.2,1.4-0.5,1.9c-0.3,0.6-0.8,1-1.4,1.3c-0.6,0.3-1.3,0.5-2,0.5
			C193.1,53,192.4,52.8,191.9,52.5"/>
	</g>
	<polygon class="st0" points="206.3,45.5 206.3,52.9 205.4,52.9 201,47.4 201,52.9 200,52.9 200,45.5 200.8,45.5 205.2,51 
		205.2,45.5 	"/>
	<path class="st0" d="M213.4,50.2l-1.6-3.6l-1.6,3.6H213.4z M213.8,51h-3.9l-0.8,1.8H208l3.3-7.3h1l3.3,7.3h-1.1L213.8,51z"/>
	<polygon class="st0" points="217.4,45.5 218.5,45.5 218.5,52 222.4,52 222.4,52.9 217.4,52.9 	"/>
	<g>
		<defs>
			<rect id="SVGID_11_" width="267" height="67.4"/>
		</defs>
		<clipPath id="SVGID_12_">
			<use xlink:href="#SVGID_11_"  style="overflow:visible;"/>
		</clipPath>
		<path class="st6" d="M88.3,67.1c-0.5-0.2-0.9-0.4-1.2-0.7l0.4-0.8c0.3,0.3,0.6,0.5,1.1,0.6c0.4,0.2,0.9,0.2,1.3,0.2
			c0.6,0,1.1-0.1,1.4-0.3c0.3-0.2,0.5-0.5,0.5-0.8c0-0.3-0.1-0.5-0.2-0.6c-0.2-0.2-0.4-0.3-0.6-0.4c-0.2-0.1-0.6-0.2-1-0.3
			c-0.6-0.1-1-0.3-1.3-0.4c-0.3-0.1-0.6-0.3-0.9-0.6c-0.2-0.3-0.4-0.6-0.4-1.1c0-0.4,0.1-0.7,0.3-1.1c0.2-0.3,0.5-0.6,0.9-0.8
			c0.4-0.2,0.9-0.3,1.6-0.3c0.4,0,0.9,0.1,1.3,0.2c0.4,0.1,0.8,0.3,1.1,0.5l-0.3,0.8c-0.3-0.2-0.6-0.3-1-0.4c-0.3-0.1-0.7-0.2-1-0.2
			c-0.6,0-1,0.1-1.3,0.3c-0.3,0.2-0.4,0.5-0.4,0.8c0,0.3,0.1,0.5,0.3,0.6c0.2,0.2,0.4,0.3,0.6,0.4c0.2,0.1,0.6,0.2,1,0.3
			c0.6,0.1,1,0.3,1.3,0.4c0.3,0.1,0.6,0.3,0.9,0.6c0.2,0.3,0.4,0.6,0.4,1.1c0,0.4-0.1,0.7-0.3,1.1c-0.2,0.3-0.5,0.6-1,0.8
			c-0.4,0.2-1,0.3-1.6,0.3C89.4,67.4,88.8,67.3,88.3,67.1"/>
	</g>
	<polygon class="st0" points="94.9,60 94.9,67.3 100.2,67.3 100.2,66.4 96,66.4 96,64 99.6,64 99.6,63.1 96,63.1 96,60.9 
		100.1,60.9 100.1,60 	"/>
	<g>
		<defs>
			<rect id="SVGID_13_" width="267" height="67.4"/>
		</defs>
		<clipPath id="SVGID_14_">
			<use xlink:href="#SVGID_13_"  style="overflow:visible;"/>
		</clipPath>
		<path class="st7" d="M106.9,63.7c0.4-0.3,0.5-0.7,0.5-1.2c0-0.5-0.2-0.9-0.5-1.2c-0.3-0.3-0.9-0.4-1.5-0.4h-1.8v3.3h1.8
			C106.1,64.2,106.6,64,106.9,63.7 M107.5,67.3l-1.6-2.3c-0.2,0-0.3,0-0.5,0h-1.8v2.2h-1V60h2.9c1,0,1.7,0.2,2.2,0.7
			c0.5,0.5,0.8,1.1,0.8,1.9c0,0.6-0.1,1-0.4,1.4c-0.3,0.4-0.7,0.7-1.2,0.9l1.7,2.5H107.5z"/>
	</g>
	<polygon class="st0" points="116.1,60 113.5,66 110.8,60 109.7,60 112.9,67.3 114,67.3 117.2,60 	"/>
	<rect x="118.7" y="60" class="st0" width="1" height="7.3"/>
	<g>
		<defs>
			<rect id="SVGID_15_" width="267" height="67.4"/>
		</defs>
		<clipPath id="SVGID_16_">
			<use xlink:href="#SVGID_15_"  style="overflow:visible;"/>
		</clipPath>
		<path class="st8" d="M123.9,66.9c-0.6-0.3-1.1-0.8-1.4-1.3c-0.3-0.6-0.5-1.2-0.5-1.9s0.2-1.4,0.5-1.9c0.3-0.6,0.8-1,1.4-1.3
			c0.6-0.3,1.3-0.5,2-0.5c0.6,0,1.1,0.1,1.6,0.3c0.5,0.2,0.9,0.5,1.2,0.9l-0.7,0.7c-0.6-0.6-1.2-0.9-2.1-0.9c-0.5,0-1,0.1-1.5,0.4
			s-0.8,0.6-1,1c-0.2,0.4-0.4,0.9-0.4,1.4s0.1,1,0.4,1.4c0.2,0.4,0.6,0.8,1,1c0.4,0.2,0.9,0.4,1.5,0.4c0.8,0,1.5-0.3,2.1-0.9
			l0.7,0.7c-0.3,0.4-0.7,0.7-1.2,0.9c-0.5,0.2-1,0.3-1.6,0.3C125.2,67.4,124.5,67.2,123.9,66.9"/>
	</g>
	<polygon class="st0" points="130.8,60 130.8,67.3 136.2,67.3 136.2,66.4 131.9,66.4 131.9,64 135.6,64 135.6,63.1 131.9,63.1 
		131.9,60.9 136,60.9 136,60 	"/>
	<polygon class="st0" points="141.9,60 141.9,67.3 143,67.3 143,64.3 146.7,64.3 146.7,63.4 143,63.4 143,60.9 147.1,60.9 147.1,60 
			"/>
	<rect x="149.2" y="60" class="st0" width="1" height="7.3"/>
	<g>
		<defs>
			<rect id="SVGID_17_" width="267" height="67.4"/>
		</defs>
		<clipPath id="SVGID_18_">
			<use xlink:href="#SVGID_17_"  style="overflow:visible;"/>
		</clipPath>
		<path class="st9" d="M157.4,63.7c0.4-0.3,0.5-0.7,0.5-1.2c0-0.5-0.2-0.9-0.5-1.2c-0.3-0.3-0.9-0.4-1.5-0.4h-1.8v3.3h1.8
			C156.6,64.2,157.1,64,157.4,63.7 M158,67.3l-1.6-2.3c-0.2,0-0.4,0-0.5,0h-1.8v2.2h-1V60h2.9c0.9,0,1.7,0.2,2.2,0.7
			c0.5,0.5,0.8,1.1,0.8,1.9c0,0.6-0.1,1-0.4,1.4c-0.3,0.4-0.7,0.7-1.2,0.9l1.7,2.5H158z"/>
	</g>
	<polygon class="st0" points="168.3,60 165.3,65.1 162.2,60 161.3,60 161.3,67.3 162.3,67.3 162.3,62 165,66.4 165.5,66.4 168.1,62 
		168.1,67.3 169.2,67.3 169.1,60 	"/>
	<g>
		<defs>
			<rect id="SVGID_19_" width="267" height="67.4"/>
		</defs>
		<clipPath id="SVGID_20_">
			<use xlink:href="#SVGID_19_"  style="overflow:visible;"/>
		</clipPath>
		<path class="st10" d="M172.5,67.1c-0.5-0.2-0.9-0.4-1.2-0.7l0.4-0.8c0.3,0.3,0.6,0.5,1.1,0.6c0.4,0.2,0.9,0.2,1.3,0.2
			c0.6,0,1.1-0.1,1.4-0.3c0.3-0.2,0.4-0.5,0.4-0.8c0-0.3-0.1-0.5-0.2-0.6c-0.2-0.2-0.4-0.3-0.6-0.4c-0.2-0.1-0.6-0.2-1-0.3
			c-0.6-0.1-1-0.3-1.3-0.4c-0.3-0.1-0.6-0.3-0.9-0.6s-0.4-0.6-0.4-1.1c0-0.4,0.1-0.7,0.3-1.1c0.2-0.3,0.5-0.6,0.9-0.8
			c0.4-0.2,0.9-0.3,1.6-0.3c0.4,0,0.9,0.1,1.3,0.2c0.4,0.1,0.8,0.3,1.1,0.5l-0.3,0.8c-0.3-0.2-0.6-0.3-1-0.4c-0.3-0.1-0.7-0.2-1-0.2
			c-0.6,0-1,0.1-1.3,0.3c-0.3,0.2-0.4,0.5-0.4,0.8c0,0.3,0.1,0.5,0.3,0.6c0.2,0.2,0.4,0.3,0.6,0.4c0.2,0.1,0.6,0.2,1,0.3
			c0.6,0.1,1,0.3,1.3,0.4c0.3,0.1,0.6,0.3,0.9,0.6c0.2,0.3,0.4,0.6,0.4,1.1c0,0.4-0.1,0.7-0.3,1.1c-0.2,0.3-0.5,0.6-1,0.8
			c-0.4,0.2-1,0.3-1.6,0.3C173.6,67.4,173,67.3,172.5,67.1"/>
		<path class="st11" d="M153.4,27.7c2.7,0,5.1-0.5,7.2-1.6c2.1-1.1,3.7-2.6,4.8-4.5c1.1-1.9,1.7-4.2,1.7-6.7c0-2.5-0.6-4.7-1.7-6.7
			c-1.1-1.9-2.7-3.4-4.8-4.5c-2.1-1.1-4.5-1.6-7.2-1.6H144v25.6H153.4z M141.9,0.2h11.7c3.1,0,5.8,0.6,8.1,1.9
			c2.4,1.3,4.2,3,5.5,5.2c1.3,2.2,2,4.8,2,7.6c0,2.8-0.7,5.4-2,7.6c-1.3,2.2-3.2,4-5.5,5.2c-2.4,1.3-5.1,1.9-8.1,1.9h-11.7V0.2z"/>
	</g>
	<polygon class="st12" points="197.1,0.2 185.2,26.9 173.3,0.2 170.9,0.2 184,29.7 186.2,29.7 199.3,0.2 	"/>
	<rect x="204.1" y="0.2" class="st12" width="2.1" height="29.5"/>
	<g>
		<defs>
			<rect id="SVGID_21_" width="267" height="67.4"/>
		</defs>
		<clipPath id="SVGID_22_">
			<use xlink:href="#SVGID_21_"  style="overflow:visible;"/>
		</clipPath>
		<path class="st13" d="M221.2,28c-2.3-1.3-4.1-3.1-5.5-5.3c-1.3-2.3-2-4.8-2-7.7c0-2.8,0.7-5.4,2-7.7c1.3-2.3,3.2-4.1,5.5-5.3
			c2.3-1.3,4.9-1.9,7.8-1.9c2.1,0,4.1,0.3,5.9,1c1.8,0.7,3.3,1.7,4.6,3.1l-1.3,1.4c-2.4-2.3-5.4-3.5-9.1-3.5c-2.5,0-4.7,0.6-6.7,1.7
			c-2,1.1-3.6,2.7-4.8,4.7c-1.2,2-1.7,4.2-1.7,6.6c0,2.4,0.6,4.7,1.7,6.6c1.2,2,2.7,3.5,4.8,4.7c2,1.1,4.3,1.7,6.7,1.7
			c3.6,0,6.7-1.2,9.1-3.5l1.3,1.4c-1.3,1.3-2.8,2.4-4.6,3.1c-1.8,0.7-3.8,1.1-5.9,1.1C226.1,29.9,223.5,29.2,221.2,28"/>
	</g>
	<polygon class="st12" points="246.7,0.2 246.7,29.7 267,29.7 267,27.7 248.8,27.7 248.8,15.7 264.5,15.7 264.5,13.8 248.8,13.8 
		248.8,2.1 266.4,2.1 266.4,0.2 	"/>
	<polygon class="st12" points="123.1,0.6 121.1,0.6 129.6,19.6 116.4,19.6 117.3,21.4 130.4,21.4 134.2,29.7 136.6,29.7 	"/>
	<g>
		<defs>
			<rect id="SVGID_23_" width="267" height="67.4"/>
		</defs>
		<clipPath id="SVGID_24_">
			<use xlink:href="#SVGID_23_"  style="overflow:visible;"/>
		</clipPath>
		<path class="st14" d="M73.6,7.2c-1-0.8-2.5-1.3-4.5-1.3h-5.3v9.9h5.3c2,0,3.5-0.4,4.5-1.3c1-0.9,1.5-2.1,1.5-3.6
			C75.1,9.2,74.6,8,73.6,7.2 M75.2,28.9L69.8,21h-0.3h-5.7v7.9h-6.6V0.5h12.3c2.5,0,4.7,0.4,6.5,1.3c1.8,0.8,3.3,2,4.3,3.6
			c1,1.5,1.5,3.4,1.5,5.5c0,2.1-0.5,3.9-1.5,5.4c-1,1.5-2.4,2.7-4.3,3.5l6.4,9.1H75.2z"/>
	</g>
	<path class="st12" d="M103.5,17.8L99,7l-4.5,10.8H103.5z M105.6,22.8H92.4l-2.5,6.1h-6.7L95.8,0.5h6.5L115,28.9h-6.9L105.6,22.8z"
		/>
	<polygon class="st12" points="33.7,0.5 29.6,5.9 38,5.9 38,28.9 44.6,28.9 44.6,5.9 53.7,5.9 53.7,0.5 	"/>
	<polygon class="st12" points="20.5,11.6 26.3,4 28.9,0.6 21.5,0.6 16.8,6.8 	"/>
	<polygon class="st12" points="20.5,17.6 17,22.1 22,28.9 29.1,28.9 	"/>
	<polygon class="st12" points="0.5,0.6 11.1,14.4 0,28.9 7.1,28.9 18.2,14.6 7.4,0.6 	"/>
</g>
</svg>
